PathFileType	4	(X/Y/Z)	40_1_34_p1_0-364_filt_butterworth.trc
DataRate	CameraRate	NumFrames	NumMarkers	Units	OrigDataRate	OrigDataStartFrame	OrigNumFrames
60.0	60.0	5	27	m	60.0	136	364
Frame#	Time	RHip			RKnee			RAnkle			RBigToe			RSmallToe			RHeel			LHip			LKnee			LAnkle			LBigToe			LSmallToe			LHeel			Neck			Head			Nose			RShoulder			RElbow			RWrist			RThumb			RIndex			RPinky			LShoulder			LElbow			LWrist			LThumb			LIndex			LPinky			
		X1	Y1	Z1	X2	Y2	Z2	X3	Y3	Z3	X4	Y4	Z4	X5	Y5	Z5	X6	Y6	Z6	X7	Y7	Z7	X8	Y8	Z8	X9	Y9	Z9	X10	Y10	Z10	X11	Y11	Z11	X12	Y12	Z12	X13	Y13	Z13	X14	Y14	Z14	X15	Y15	Z15	X16	Y16	Z16	X17	Y17	Z17	X18	Y18	Z18	X19	Y19	Z19	X20	Y20	Z20	X21	Y21	Z21	X22	Y22	Z22	X23	Y23	Z23	X24	Y24	Z24	X25	Y25	Z25	X26	Y26	Z26	X27	Y27	Z27	
136	2.2666666666666666	0.30641084027918414	0.6239342198938631	0.8492177078521523	0.29752952561276613	0.6650187416633436	1.2735810743828424	0.29235399138857654	0.8180706750990602	1.6693996595103213	0.3119656003834451	0.6501270789636464	1.7010656685867835	0.3639080110346965	0.715402876162276	1.7150225542149915	0.25935436364874354	0.9499544860174802	1.7668916988262704	0.1410072656596468	0.6073333448919437	0.854211153480168	0.15261531849115095	0.6114006886466598	1.259067246877498	0.09912627490918688	0.8591252581388282	1.706131177336293	0.14998654519453805	0.6480134894895228	1.7036580091151603	0.09014273296019687	0.709811506793771	1.7223186763981155	0.09745124758112748	0.9264282144553776	1.7491870860614196	0.29685098383944963	0.4239964635430872	0.3742929273790646	0.3719902247361524	0.27872240341530286	0.14544544393949121	0.3912796012750613	0.299561893835824	0.2942231939534096	0.3955974929645123	0.5164431384018848	0.42778782878886523	0.4021168206172767	0.5483775821340581	0.6725937049542818	0.38920511090133947	0.3475377628684243	0.5412382937520726	0.38031560001965714	0.3216551993385379	0.4150138981252688	0.399264607556902	0.30336496702974525	0.40728534797444416	0.41111820633931634	0.2478237959281601	0.46035659636443654	0.15562253624975095	0.3943845614971295	0.4354193263922227	0.2449566525977722	0.34847526167862564	0.6636525009060712	0.35038465837106264	0.2870788932621322	0.5111277949378693	0.3645945906351015	0.2512860142029367	0.4220131163670168	0.37531472532513815	0.2826325710600637	0.4024928759505294	0.39938956403305037	0.2679754681543457	0.45099433748476925
137	2.283333333333333	0.30548759517399104	0.6243821809997547	0.8501730214772205	0.29612293428922193	0.6601858021172308	1.2719605613342788	0.2919954140576912	0.81854092406986	1.6709081704346649	0.31184148409871815	0.6466821723182201	1.7005701445324963	0.36394444522303976	0.7122604973014935	1.7151277938087954	0.2605652374859629	0.9555935664786698	1.7688990978980428	0.1394504412817949	0.6055664965254738	0.8555489445630141	0.15054558163883225	0.6022605076911314	1.2589668965668686	0.09918176531673668	0.8589714779680864	1.7060117649881457	0.150012484527391	0.6479399023858483	1.7037143614004966	0.09022672896318647	0.7084939279292287	1.7217572042488074	0.09739827817000997	0.9240498206848189	1.7502849724647696	0.2967496521281196	0.42572926941624173	0.3761092066073314	0.37431997125643085	0.28349926446650364	0.147753679116169	0.3936949193285181	0.30134147486660023	0.29731080700901286	0.39512135717650804	0.5179289380941329	0.4285506011693174	0.3973378651800616	0.5506323778073953	0.6719873533406234	0.391987501911281	0.347983855440209	0.5344393194447917	0.3814584735345343	0.32671295505686754	0.4117372751134354	0.40022940565447374	0.3065990837011724	0.4045419361666006	0.41634213880740706	0.2561299833523447	0.4577848000021297	0.15881003807494248	0.4007113329333923	0.43797396678940165	0.25507395508144476	0.348904903599762	0.6647861211187422	0.3590557395688937	0.295726078594502	0.503594817411589	0.37273899858841403	0.26867712154074336	0.4111355319298243	0.3817458549915521	0.29248043803917434	0.39421877403366135	0.4005680078125043	0.2775284981795988	0.4426094765757639
138	2.3	0.30436156499727257	0.6244874401266906	0.8513354795749091	0.2953270301076757	0.6568345382719339	1.2707999447568268	0.29162167679698064	0.819127084456681	1.6720410080775254	0.31145212222847596	0.6418209677111012	1.699234846914901	0.36453670731365523	0.7074180413476635	1.7151855411814803	0.2619593078041621	0.9624126208759939	1.7703606666659435	0.13803371882688342	0.6022317396432426	0.857944811588434	0.14890966554170826	0.5948200793853162	1.2586663330852421	0.09922695531340407	0.8586547393742727	1.705618719862552	0.14985070613301077	0.6480741355920963	1.7036415690579865	0.09009608295323819	0.7043352291784395	1.7196382372407957	0.09697955423708114	0.922859226994567	1.750291085212404	0.2965191212604865	0.4274579606055044	0.3772533430644599	0.3762752998106838	0.2854271436377961	0.1499009029983536	0.39612429312020087	0.30553917608315484	0.29914393560570696	0.39420171588600605	0.519661760924867	0.42673057954939686	0.39534742348423496	0.5502869804846412	0.6719296137156964	0.3932070416179745	0.3487466003924386	0.526576588298701	0.379863204845605	0.3339885453323175	0.406653641126678	0.3977466787237628	0.30673396671882114	0.399735098162338	0.4153705797705241	0.26553032818708144	0.4522148625575563	0.16232826033303288	0.4043234399464509	0.4395292888393217	0.2629329249010425	0.34777320100559356	0.6656972499068539	0.36552831749369163	0.30367326010500006	0.49660260523147426	0.37540126293648907	0.28373177632567953	0.4021578288103361	0.3824641616473996	0.2967857507027763	0.38824770519953233	0.39793559162448555	0.28771168684829074	0.43308712824039863
139	2.316666666666667	0.30339229650769306	0.6239292223683433	0.8527100187046792	0.2952043919663243	0.6560138219075723	1.2708048585007314	0.2911459518121336	0.8198982132396682	1.6724839305113908	0.31089760955777923	0.6379065532551258	1.697463499495275	0.36477489260078594	0.703350394726683	1.7152345826615945	0.2630655841067087	0.9672803820338857	1.7710993624914826	0.13723663586828724	0.5981573510188403	0.8603425385010857	0.14801873649685518	0.5899491164671652	1.258178394541557	0.09923949279700973	0.8583886049258095	1.7053412607437959	0.14975347973178182	0.6477082855127605	1.7030210084235156	0.09004004889126191	0.6984411448371749	1.7163725751582315	0.0967424830222144	0.9243480929624502	1.7488053754235597	0.29630514959692744	0.4310231271399221	0.37794456147814376	0.3773108665840062	0.2856149525444184	0.15159711733012482	0.3987057936714564	0.31289910030300216	0.29979808388312157	0.3925974734363524	0.5233560054538368	0.42465826024527514	0.39650250058062836	0.5492987806524414	0.6721386151723162	0.3937204067569931	0.34933478749980584	0.5205168723028447	0.3778349324089329	0.3405595351122196	0.4013858325326265	0.3952220259436423	0.30582540817877596	0.3940109949277255	0.4113840160001959	0.27338593646880294	0.44523525422291177	0.16589005224593584	0.4059160032770567	0.440020585481114	0.2687146400448832	0.34504566695123773	0.6662769497978969	0.3692303387018846	0.31153623568832156	0.49117339402310045	0.3744594840871461	0.2938403261319688	0.39567217082115225	0.3804208976511867	0.29925081435497075	0.3848122116335384	0.39495361492240233	0.29511076399567804	0.4243562108051958
140	2.333333333333333	0.30232636225734544	0.6223160027204597	0.8537884389328048	0.29528615154478055	0.6566839485883652	1.271450828465116	0.2906535389787953	0.8206669927845234	1.672466475732136	0.31045903319230617	0.6361378412803873	1.6960950049341772	0.3640312814809225	0.7025125345752866	1.7153605701296777	0.26358277474654435	0.969167977970127	1.7713842940764506	0.13684725366316863	0.595269087933892	0.8614966010947596	0.1477752902561256	0.587044724057553	1.2574022625204844	0.09922297881271894	0.8582448279674046	1.7052029570246563	0.14984010089810798	0.6465730455079498	1.7013789182975936	0.0901358229740357	0.6934677568609094	1.713301713967521	0.09666119423052523	0.9271537187422025	1.7471617883993757	0.2961820375897823	0.43575026139054834	0.3788881130140137	0.3775603776200049	0.2851948597162065	0.15291503745662996	0.40150483623167804	0.3226437085746584	0.30009663797963626	0.3908219170207253	0.5294340269503837	0.4237653151851728	0.3988242322590136	0.5491184004958369	0.6715027195354982	0.3944821689499273	0.34993472282173405	0.5170820717260124	0.37667952291747187	0.34465095886268976	0.39786053834698365	0.394065051364294	0.3059453436737652	0.3900151035063982	0.40862846417295867	0.2793089101644757	0.4389849731996225	0.16902206109628198	0.40792451737824464	0.43953278153082576	0.2734602272866787	0.34171693948046	0.6663724036686269	0.3712278095458712	0.31943704289998176	0.486558164586371	0.3728365219165105	0.30118732344105015	0.3913065730238232	0.3783203421945695	0.30347019093750077	0.382786180377646	0.392863122411824	0.2997326654790346	0.41678007040918164
